<svg width="156" height="145" viewBox="0 0 156 145" fill="none" xmlns="http://www.w3.org/2000/svg">
<path fill-rule="evenodd" clip-rule="evenodd" d="M31.165 23.0787C32.324 17.2591 34.1012 11.4345 36.4577 5.78669L22.5892 0C20.2777 5.5396 18.4363 11.2498 17.1012 17.0134L6.33296e-06 9.63808L0 144.117L155.909 76.8777L117.659 60.3814C121.115 55.0577 124.12 49.3525 126.603 43.4002L112.735 37.6135C110.251 43.5655 107.176 49.1982 103.627 54.3298L31.165 23.0787ZM31.165 23.0787L17.1012 17.0134C16.2375 20.7419 15.5857 24.4928 15.1557 28.2342C14.0613 37.7544 14.4155 47.1073 16.286 55.7543C18.1562 64.3996 21.5278 72.2631 26.3673 78.7773C31.2223 85.3125 37.4382 90.3251 44.6984 93.3544C51.9587 96.3838 59.8938 97.2758 67.954 96.1295C75.9883 94.9868 83.9491 91.8518 91.4093 87.0996C98.871 82.3465 105.768 76.0191 111.765 68.5445C113.85 65.9453 115.818 63.2175 117.659 60.3814L103.627 54.3298C102.481 55.9877 101.285 57.5934 100.043 59.1406C94.9572 65.4801 89.2601 70.6515 83.3358 74.4252C77.41 78.1999 71.4549 80.4529 65.838 81.2518C60.247 82.0469 55.063 81.3959 50.4851 79.4858C45.9073 77.5757 41.7979 74.349 38.4302 69.8158C35.0469 65.2616 32.4592 59.4441 30.9737 52.5771C29.4886 45.7117 29.1566 38.0247 30.0848 29.9502C30.3471 27.6679 30.708 25.3737 31.165 23.0787Z" fill="#FAFAFA"/>
</svg>
